<svg id="Capa_1" enable-background="new 0 0 512 512" height="512" viewBox="0 0 512 512" width="512" xmlns="http://www.w3.org/2000/svg" xmlns:xlink="http://www.w3.org/1999/xlink"><linearGradient id="lg1"><stop offset="0" stop-color="#230be0"/><stop offset="1" stop-color="#fc54ff"/></linearGradient><linearGradient id="SVGID_1_" gradientUnits="userSpaceOnUse" x1="74.981" x2="437.02" xlink:href="#lg1" y1="437.019" y2="74.98"/><radialGradient id="SVGID_2_" cx="256.001" cy="256" gradientUnits="userSpaceOnUse" r="256"><stop offset="0" stop-color="#8d00db" stop-opacity=".8"/><stop offset="1" stop-color="#fc54ff" stop-opacity="0"/></radialGradient><linearGradient id="lg2"><stop offset="0" stop-color="#fc54ff"/><stop offset=".1022" stop-color="#fd77ff"/><stop offset=".2431" stop-color="#fda0ff"/><stop offset=".3875" stop-color="#fec3ff"/><stop offset=".5338" stop-color="#feddff"/><stop offset=".6827" stop-color="#fff0ff"/><stop offset=".8359" stop-color="#fffbff"/><stop offset="1" stop-color="#fff"/></linearGradient><linearGradient id="SVGID_3_" gradientUnits="userSpaceOnUse" x1="-298.244" x2="1033.558" xlink:href="#lg2" y1="637.135" y2="-694.666"/><linearGradient id="SVGID_4_" gradientUnits="userSpaceOnUse" x1="-246.256" x2="1053.235" xlink:href="#lg2" y1="664.869" y2="-634.623"/><linearGradient id="SVGID_5_" gradientUnits="userSpaceOnUse" x1="-192.242" x2="1087.57" xlink:href="#lg2" y1="704.242" y2="-575.57"/><linearGradient id="SVGID_6_" gradientUnits="userSpaceOnUse" x1="-151.844" x2="1139.025" xlink:href="#lg2" y1="757.232" y2="-533.638"/><linearGradient id="SVGID_7_" gradientUnits="userSpaceOnUse" x1="-115.785" x2="1181.972" xlink:href="#lg2" y1="800.893" y2="-496.863"/><linearGradient id="SVGID_8_" gradientUnits="userSpaceOnUse" x1="-89.343" x2="1207.462" xlink:href="#lg2" y1="828.642" y2="-468.163"/><linearGradient id="SVGID_9_" gradientUnits="userSpaceOnUse" x1="-68.023" x2="1195.524" xlink:href="#lg2" y1="828.933" y2="-434.615"/><linearGradient id="SVGID_10_" gradientUnits="userSpaceOnUse" x1="-114.132" x2="1253.372" xlink:href="#lg2" y1="853.43" y2="-514.073"/><linearGradient id="SVGID_11_" gradientUnits="userSpaceOnUse" x1="-128.47" x2="1203.331" xlink:href="#lg2" y1="813.578" y2="-518.223"/><linearGradient id="SVGID_12_" gradientUnits="userSpaceOnUse" x1="-157.684" x2="1141.808" xlink:href="#lg2" y1="763.071" y2="-536.42"/><linearGradient id="SVGID_13_" gradientUnits="userSpaceOnUse" x1="-197.827" x2="1081.986" xlink:href="#lg2" y1="709.827" y2="-569.986"/><linearGradient id="SVGID_14_" gradientUnits="userSpaceOnUse" x1="-246.019" x2="1044.852" xlink:href="#lg2" y1="664.631" y2="-626.239"/><linearGradient id="SVGID_15_" gradientUnits="userSpaceOnUse" x1="-286.932" x2="1010.824" xlink:href="#lg2" y1="625.823" y2="-671.932"/><linearGradient id="SVGID_16_" gradientUnits="userSpaceOnUse" x1="-312.703" x2="984.103" xlink:href="#lg2" y1="597.404" y2="-699.402"/><linearGradient id="SVGID_17_" gradientUnits="userSpaceOnUse" x1="-310.583" x2="952.967" xlink:href="#lg2" y1="573.673" y2="-689.876"/><linearGradient id="SVGID_18_" gradientUnits="userSpaceOnUse" x1="-337.746" x2="1029.756" xlink:href="#lg2" y1="622.447" y2="-745.055"/><linearGradient id="lg3"><stop offset=".5731" stop-color="#fc54ff"/><stop offset=".6787" stop-color="#fc70ff" stop-opacity=".753"/><stop offset=".8025" stop-color="#fd8aff" stop-opacity=".463"/><stop offset=".9135" stop-color="#fd9aff" stop-opacity=".203"/><stop offset="1" stop-color="#fda0ff" stop-opacity="0"/></linearGradient><radialGradient id="SVGID_19_" cx="258.329" cy="256.582" gradientUnits="userSpaceOnUse" r="201.938" xlink:href="#lg3"/><radialGradient id="SVGID_20_" cx="304.316" cy="489.679" gradientTransform="matrix(.924 .383 -.383 .924 164.04 -312.682)" gradientUnits="userSpaceOnUse" r="199.753" xlink:href="#lg3"/><radialGradient id="SVGID_21_" cx="437.628" cy="686.483" gradientTransform="matrix(.707 .707 -.707 .707 435.251 -538.788)" gradientUnits="userSpaceOnUse" r="196.91" xlink:href="#lg3"/><radialGradient id="SVGID_22_" cx="636.863" cy="820.891" gradientTransform="matrix(.383 .924 -.924 .383 772.344 -643.894)" gradientUnits="userSpaceOnUse" r="199.753" xlink:href="#lg3"/><radialGradient id="SVGID_23_" cx="870.33" cy="868.582" gradientTransform="matrix(0 1 -1 0 1124 -612)" gradientUnits="userSpaceOnUse" r="201.938" xlink:href="#lg3"/><radialGradient id="SVGID_24_" cx="1103.932" cy="820.891" gradientTransform="matrix(-.383 .924 -.924 -.383 1436.682 -447.961)" gradientUnits="userSpaceOnUse" r="199.753" xlink:href="#lg3"/><radialGradient id="SVGID_25_" cx="1303.127" cy="686.483" gradientTransform="matrix(-.707 .707 -.707 -.707 1662.788 -176.749)" gradientUnits="userSpaceOnUse" r="196.91" xlink:href="#lg3"/><radialGradient id="SVGID_26_" cx="1436.48" cy="489.679" gradientTransform="matrix(-.924 .383 -.383 -.924 1767.894 160.344)" gradientUnits="userSpaceOnUse" r="199.753" xlink:href="#lg3"/><radialGradient id="SVGID_27_" cx="1482.33" cy="256.582" gradientTransform="matrix(-1 0 0 -1 1736 512)" gradientUnits="userSpaceOnUse" r="201.938" xlink:href="#lg3"/><radialGradient id="SVGID_28_" cx="1435.144" cy="21.274" gradientTransform="matrix(-.924 -.383 .383 -.924 1571.96 824.682)" gradientUnits="userSpaceOnUse" r="199.753" xlink:href="#lg3"/><radialGradient id="SVGID_29_" cx="1303.127" cy="-179.015" gradientTransform="matrix(-.707 -.707 .707 -.707 1300.749 1050.788)" gradientUnits="userSpaceOnUse" r="196.91" xlink:href="#lg3"/><radialGradient id="SVGID_30_" cx="1105.268" cy="-309.938" gradientTransform="matrix(-.383 -.924 .924 -.383 963.656 1155.894)" gradientUnits="userSpaceOnUse" r="199.753" xlink:href="#lg3"/><radialGradient id="SVGID_31_" cx="870.329" cy="-355.418" gradientTransform="matrix(0 -1 1 0 612 1124)" gradientUnits="userSpaceOnUse" r="201.938" xlink:href="#lg3"/><radialGradient id="SVGID_32_" cx="635.528" cy="-309.938" gradientTransform="matrix(.383 -.924 .924 .383 299.318 959.96)" gradientUnits="userSpaceOnUse" r="199.753" xlink:href="#lg3"/><radialGradient id="SVGID_33_" cx="437.628" cy="-179.015" gradientTransform="matrix(.707 -.707 .707 .707 73.212 688.749)" gradientUnits="userSpaceOnUse" r="196.91" xlink:href="#lg3"/><radialGradient id="SVGID_34_" cx="305.651" cy="21.274" gradientTransform="matrix(.924 -.383 .383 .924 -31.894 351.656)" gradientUnits="userSpaceOnUse" r="199.753" xlink:href="#lg3"/><linearGradient id="SVGID_35_" gradientUnits="userSpaceOnUse" x1="-321.551" x2="466.987" xlink:href="#lg2" y1="833.55" y2="45.013"/><linearGradient id="SVGID_36_" gradientUnits="userSpaceOnUse" x1="-102.79" x2="605.418" xlink:href="#lg2" y1="614.79" y2="-93.418"/><linearGradient id="SVGID_37_" gradientUnits="userSpaceOnUse" x1="14.823" x2="409.739" xlink:href="#lg1" y1="497.177" y2="102.261"/><radialGradient id="SVGID_38_" cx="256" cy="256" gradientUnits="userSpaceOnUse" r="122.929"><stop offset="0" stop-color="#fc54ff" stop-opacity="0"/><stop offset=".2373" stop-color="#f952fe" stop-opacity=".19"/><stop offset=".4206" stop-color="#ef4afb" stop-opacity=".337"/><stop offset=".5859" stop-color="#df3ef5" stop-opacity=".469"/><stop offset=".7405" stop-color="#c72cee" stop-opacity=".592"/><stop offset=".8863" stop-color="#aa16e4" stop-opacity=".709"/><stop offset="1" stop-color="#8d00db" stop-opacity=".8"/></radialGradient><linearGradient id="SVGID_39_" gradientTransform="matrix(.707 .707 -.707 .707 435.251 -538.788)" gradientUnits="userSpaceOnUse" x1="435.251" x2="435.251" xlink:href="#lg2" y1="1213.328" y2="486.813"/><radialGradient id="SVGID_40_" cx="435.251" cy="688.749" gradientTransform="matrix(.707 .707 -.707 .707 435.251 -538.788)" gradientUnits="userSpaceOnUse" r="128.178"><stop offset="0" stop-color="#fff" stop-opacity="0"/><stop offset=".4038" stop-color="#fffdff" stop-opacity=".323"/><stop offset=".5492" stop-color="#fff6ff" stop-opacity=".439"/><stop offset=".6529" stop-color="#ffebff" stop-opacity=".522"/><stop offset=".7368" stop-color="#fedaff" stop-opacity=".589"/><stop offset=".8085" stop-color="#fec4ff" stop-opacity=".647"/><stop offset=".8721" stop-color="#fda8ff" stop-opacity=".698"/><stop offset=".9296" stop-color="#fd88ff" stop-opacity=".744"/><stop offset=".9807" stop-color="#fc64ff" stop-opacity=".785"/><stop offset="1" stop-color="#fc54ff" stop-opacity=".8"/></radialGradient><linearGradient id="SVGID_41_" gradientUnits="userSpaceOnUse" x1="88.031" x2="709.737" xlink:href="#lg2" y1="423.969" y2="-197.737"/><linearGradient id="SVGID_42_" gradientUnits="userSpaceOnUse" x1="157.995" x2="484.602" xlink:href="#lg2" y1="354.005" y2="27.398"/><linearGradient id="SVGID_43_" gradientUnits="userSpaceOnUse" x1="202.59" x2="405.22" xlink:href="#lg2" y1="310.453" y2="107.823"/><linearGradient id="SVGID_44_" gradientUnits="userSpaceOnUse" x1="146.183" x2="396.381" y1="365.817" y2="115.619"><stop offset="0" stop-color="#1805b0"/><stop offset="1" stop-color="#fc54ff"/></linearGradient><g><circle cx="256" cy="256" fill="url(#SVGID_1_)" r="256"/><circle cx="256" cy="256" fill="url(#SVGID_2_)" r="256"/><path d="m256 39.725c-8.279 0-15.019 6.91-15.051 15.4-.066 20.606-.123 41.211-.169 61.817 10.147-.023 20.293-.023 30.44 0-.046-20.606-.102-41.211-.169-61.817-.032-8.49-6.772-15.4-15.051-15.4z" fill="url(#SVGID_3_)"/><path d="m345.552 77.054c3.059-7.752-.775-16.775-8.51-20.152s-16.471.208-19.564 7.999c-7.497 18.902-15.12 37.852-22.828 56.833 9.402 3.971 18.819 7.957 28.248 11.951 7.66-18.926 15.225-37.809 22.654-56.631z" fill="url(#SVGID_4_)"/><path d="m364.777 169.075c14.369-14.336 28.644-28.571 42.78-42.661 5.828-5.805 5.587-15.398-.493-21.478-6.08-6.079-15.674-6.32-21.478-.493-14.09 14.137-28.324 28.411-42.661 42.78 7.275 7.291 14.561 14.577 21.852 21.852z" fill="url(#SVGID_5_)"/><path d="m390.266 217.35c18.981-7.708 37.931-15.331 56.833-22.828 7.791-3.093 11.376-11.828 7.999-19.564-3.377-7.734-12.4-11.569-20.152-8.51-18.823 7.429-37.705 14.993-56.632 22.654 3.995 9.429 7.981 18.846 11.952 28.248z" fill="url(#SVGID_6_)"/><path d="m456.875 240.949c-20.606-.066-41.211-.123-61.817-.168.023 10.147.023 20.293 0 30.44 20.606-.046 41.211-.102 61.817-.169 8.489-.033 15.4-6.773 15.4-15.051 0-8.28-6.91-15.02-15.4-15.052z" fill="url(#SVGID_7_)"/><path d="m447.099 317.478c-18.902-7.497-37.852-15.12-56.833-22.828-3.971 9.402-7.957 18.819-11.952 28.248 18.926 7.661 37.809 15.225 56.632 22.654 7.752 3.059 16.776-.775 20.152-8.51 3.377-7.736-.208-16.471-7.999-19.564z" fill="url(#SVGID_8_)"/><path d="m364.777 342.925c-7.291 7.275-14.577 14.561-21.852 21.852 14.336 14.369 28.571 28.643 42.661 42.78 5.804 5.828 15.398 5.586 21.478-.493 6.079-6.08 6.32-15.674.493-21.478-14.136-14.089-28.411-28.324-42.78-42.661z" fill="url(#SVGID_9_)"/><path d="m322.898 378.314c-9.429 3.995-18.846 7.98-28.248 11.951 7.708 18.981 15.331 37.931 22.828 56.833 3.093 7.792 11.828 11.376 19.564 8 7.734-3.377 11.569-12.4 8.51-20.152-7.429-18.822-14.994-37.705-22.654-56.632z" fill="url(#SVGID_10_)"/><path d="m240.949 456.875c.033 8.49 6.773 15.4 15.051 15.4 8.279 0 15.019-6.91 15.051-15.4.066-20.606.123-41.211.169-61.817-10.147.023-20.293.023-30.44 0 .046 20.606.102 41.211.169 61.817z" fill="url(#SVGID_11_)"/><path d="m166.448 434.946c-3.059 7.752.775 16.775 8.51 20.152 7.736 3.377 16.471-.208 19.564-7.999 7.497-18.902 15.12-37.852 22.828-56.833-9.402-3.971-18.819-7.957-28.248-11.951-7.66 18.926-15.225 37.809-22.654 56.631z" fill="url(#SVGID_12_)"/><path d="m147.223 342.925c-14.369 14.336-28.643 28.571-42.78 42.661-5.828 5.804-5.587 15.398.493 21.478 6.08 6.079 15.674 6.32 21.478.493 14.09-14.137 28.324-28.411 42.661-42.78-7.275-7.291-14.561-14.577-21.852-21.852z" fill="url(#SVGID_13_)"/><path d="m121.734 294.65c-18.981 7.708-37.931 15.331-56.833 22.828-7.791 3.093-11.376 11.828-7.999 19.564 3.377 7.735 12.4 11.569 20.152 8.51 18.823-7.429 37.705-14.993 56.632-22.654-3.995-9.429-7.981-18.846-11.952-28.248z" fill="url(#SVGID_14_)"/><path d="m116.942 271.22c-.023-10.147-.023-20.293 0-30.44-20.606.046-41.211.102-61.817.168-8.49.033-15.4 6.773-15.4 15.051 0 8.279 6.91 15.019 15.4 15.051 20.605.068 41.211.124 61.817.17z" fill="url(#SVGID_15_)"/><path d="m64.901 194.522c18.902 7.497 37.852 15.12 56.833 22.828 3.971-9.402 7.957-18.819 11.952-28.248-18.926-7.661-37.809-15.225-56.632-22.654-7.752-3.059-16.775.775-20.152 8.51-3.377 7.736.208 16.471 7.999 19.564z" fill="url(#SVGID_16_)"/><path d="m147.223 169.075c7.291-7.275 14.577-14.561 21.852-21.852-14.336-14.369-28.571-28.644-42.661-42.78-5.804-5.828-15.398-5.587-21.478.493-6.079 6.08-6.32 15.674-.493 21.478 14.136 14.089 28.411 28.324 42.78 42.661z" fill="url(#SVGID_17_)"/><path d="m174.958 56.902c-7.734 3.377-11.569 12.4-8.51 20.152 7.429 18.823 14.993 37.705 22.654 56.632 9.429-3.995 18.846-7.98 28.248-11.951-7.708-18.981-15.331-37.931-22.828-56.833-3.093-7.792-11.828-11.377-19.564-8z" fill="url(#SVGID_18_)"/><path d="m256 39.725c-8.279 0-15.019 6.91-15.051 15.4-.066 20.606-.123 41.211-.169 61.817 10.147-.023 20.293-.023 30.44 0-.046-20.606-.102-41.211-.169-61.817-.032-8.49-6.772-15.4-15.051-15.4z" fill="url(#SVGID_19_)"/><path d="m337.042 56.902c-7.735-3.377-16.471.208-19.564 7.999-7.497 18.902-15.12 37.852-22.828 56.833 9.402 3.971 18.819 7.957 28.248 11.952 7.661-18.926 15.225-37.809 22.654-56.632 3.059-7.752-.776-16.776-8.51-20.152z" fill="url(#SVGID_20_)"/><path d="m407.065 104.936c-6.08-6.079-15.674-6.32-21.478-.493-14.09 14.137-28.325 28.411-42.661 42.78 7.275 7.291 14.561 14.577 21.852 21.852 14.369-14.336 28.643-28.571 42.78-42.661 5.827-5.805 5.586-15.398-.493-21.478z" fill="url(#SVGID_21_)"/><path d="m455.098 174.958c-3.377-7.734-12.4-11.569-20.152-8.51-18.823 7.429-37.705 14.993-56.632 22.654 3.995 9.429 7.98 18.846 11.952 28.248 18.981-7.708 37.931-15.331 56.833-22.828 7.791-3.093 11.376-11.829 7.999-19.564z" fill="url(#SVGID_22_)"/><path d="m472.275 256c0-8.279-6.91-15.019-15.4-15.051-20.606-.066-41.211-.123-61.817-.168.023 10.147.023 20.293 0 30.44 20.606-.046 41.211-.102 61.817-.169 8.49-.033 15.4-6.773 15.4-15.052z" fill="url(#SVGID_23_)"/><path d="m455.098 337.042c3.377-7.736-.208-16.471-7.999-19.564-18.902-7.497-37.852-15.12-56.833-22.828-3.971 9.402-7.957 18.819-11.952 28.248 18.926 7.661 37.809 15.225 56.632 22.654 7.752 3.059 16.776-.776 20.152-8.51z" fill="url(#SVGID_24_)"/><path d="m407.065 407.065c6.079-6.08 6.32-15.674.493-21.478-14.137-14.09-28.411-28.325-42.78-42.661-7.291 7.275-14.577 14.561-21.852 21.852 14.336 14.369 28.571 28.643 42.661 42.78 5.804 5.827 15.397 5.586 21.478-.493z" fill="url(#SVGID_25_)"/><path d="m337.042 455.098c7.734-3.377 11.569-12.4 8.51-20.152-7.429-18.823-14.993-37.705-22.654-56.632-9.429 3.995-18.846 7.98-28.248 11.951 7.708 18.981 15.331 37.931 22.828 56.833 3.093 7.792 11.828 11.377 19.564 8z" fill="url(#SVGID_26_)"/><path d="m256 472.275c8.279 0 15.019-6.91 15.051-15.4.066-20.606.123-41.211.169-61.817-10.147.023-20.293.023-30.44 0 .046 20.606.102 41.211.169 61.817.032 8.49 6.772 15.4 15.051 15.4z" fill="url(#SVGID_27_)"/><path d="m174.958 455.098c7.736 3.377 16.471-.208 19.564-7.999 7.497-18.902 15.12-37.852 22.828-56.833-9.402-3.971-18.819-7.957-28.248-11.951-7.661 18.926-15.225 37.809-22.654 56.632-3.059 7.751.776 16.775 8.51 20.151z" fill="url(#SVGID_28_)"/><path d="m104.935 407.065c6.08 6.079 15.674 6.32 21.478.493 14.09-14.137 28.324-28.411 42.661-42.78-7.275-7.291-14.561-14.577-21.852-21.852-14.369 14.336-28.643 28.571-42.78 42.661-5.827 5.803-5.586 15.397.493 21.478z" fill="url(#SVGID_29_)"/><path d="m56.902 337.042c3.377 7.734 12.4 11.569 20.152 8.51 18.823-7.429 37.705-14.993 56.632-22.654-3.995-9.429-7.98-18.846-11.952-28.248-18.981 7.708-37.931 15.331-56.833 22.828-7.791 3.093-11.376 11.828-7.999 19.564z" fill="url(#SVGID_30_)"/><path d="m39.725 256c0 8.279 6.91 15.019 15.4 15.051 20.606.066 41.211.123 61.817.169-.023-10.147-.023-20.293 0-30.44-20.606.046-41.211.102-61.817.168-8.49.033-15.4 6.773-15.4 15.052z" fill="url(#SVGID_31_)"/><path d="m56.902 174.958c-3.377 7.735.208 16.471 7.999 19.564 18.902 7.497 37.852 15.12 56.833 22.828 3.971-9.402 7.957-18.819 11.952-28.248-18.926-7.66-37.809-15.225-56.632-22.654-7.752-3.059-16.776.776-20.152 8.51z" fill="url(#SVGID_32_)"/><path d="m104.935 104.936c-6.079 6.08-6.32 15.674-.493 21.478 14.137 14.09 28.411 28.324 42.78 42.661 7.291-7.275 14.577-14.561 21.852-21.852-14.336-14.369-28.571-28.643-42.661-42.78-5.804-5.828-15.397-5.587-21.478.493z" fill="url(#SVGID_33_)"/><path d="m174.958 56.902c-7.734 3.377-11.569 12.4-8.51 20.152 7.429 18.823 14.993 37.705 22.654 56.632 9.429-3.995 18.846-7.98 28.248-11.952-7.708-18.981-15.331-37.931-22.828-56.833-3.093-7.791-11.828-11.376-19.564-7.999z" fill="url(#SVGID_34_)"/><circle cx="256" cy="256" fill="url(#SVGID_35_)" r="170.15"/><circle cx="256" cy="256" fill="url(#SVGID_36_)" r="139.4"/><circle cx="256" cy="256" fill="url(#SVGID_37_)" r="100.962"/><circle cx="256" cy="256" fill="url(#SVGID_38_)" r="108.65"/><path d="m338.106 316.306c-20.03-19.997-40.189-40.138-60.362-60.306 20.173-20.168 40.332-40.309 60.362-60.306-7.272-7.26-14.54-14.528-21.8-21.8-19.997 20.03-40.138 40.189-60.306 60.362-20.168-20.173-40.309-40.332-60.306-60.362-7.26 7.272-14.528 14.54-21.8 21.8 20.03 19.997 40.189 40.138 60.362 60.306-20.173 20.168-40.333 40.309-60.362 60.306 7.272 7.26 14.54 14.528 21.8 21.8 19.997-20.03 40.138-40.189 60.306-60.362 20.168 20.173 40.309 40.332 60.306 60.362 7.26-7.272 14.528-14.54 21.8-21.8z" fill="url(#SVGID_39_)"/><path d="m338.106 316.306c-20.03-19.997-40.189-40.138-60.362-60.306 20.173-20.168 40.332-40.309 60.362-60.306-7.272-7.26-14.54-14.528-21.8-21.8-19.997 20.03-40.138 40.189-60.306 60.362-20.168-20.173-40.309-40.332-60.306-60.362-7.26 7.272-14.528 14.54-21.8 21.8 20.03 19.997 40.189 40.138 60.362 60.306-20.173 20.168-40.333 40.309-60.362 60.306 7.272 7.26 14.54 14.528 21.8 21.8 19.997-20.03 40.138-40.189 60.306-60.362 20.168 20.173 40.309 40.332 60.306 60.362 7.26-7.272 14.528-14.54 21.8-21.8z" fill="url(#SVGID_40_)"/><path d="m256 131.975c-67.714.114-123.911 56.311-124.025 124.025.114 67.714 56.311 123.911 124.025 124.025 67.713-.114 123.911-56.311 124.025-124.025-.114-67.714-56.311-123.911-124.025-124.025zm0 217.3c-51.181-.048-93.227-42.094-93.275-93.275.049-51.181 42.094-93.226 93.275-93.275 51.181.048 93.227 42.094 93.275 93.275-.048 51.181-42.094 93.227-93.275 93.275z" fill="url(#SVGID_41_)"/><circle cx="256" cy="256" fill="url(#SVGID_42_)" r="53.813"/><path d="m263.684 286.749c-29.694 0-53.827-24.116-53.796-53.786.002-1.706.093-3.391.25-5.056-5.037 8.183-7.951 17.799-7.951 28.093.009 29.656 24.157 53.803 53.813 53.813 27.953-.006 50.998-21.468 53.567-48.759-9.472 15.387-26.486 25.69-45.883 25.695z" fill="url(#SVGID_43_)"/><path d="m271.375 256c0 8.49-6.885 15.375-15.375 15.375s-15.375-6.885-15.375-15.375 6.885-15.375 15.375-15.375 15.375 6.885 15.375 15.375z" fill="url(#SVGID_44_)"/></g></svg>