<svg id="Capa_1" enable-background="new 0 0 510 510" height="512" viewBox="0 0 510 510" width="512" xmlns="http://www.w3.org/2000/svg" xmlns:xlink="http://www.w3.org/1999/xlink"><linearGradient id="lg1"><stop offset="0" stop-color="#fee97d"/><stop offset="1" stop-color="#fac600"/></linearGradient><linearGradient id="SVGID_1_" gradientUnits="userSpaceOnUse" x1="85.798" x2="424.203" xlink:href="#lg1" y1="327.197" y2="327.197"/><linearGradient id="lg2"><stop offset="0" stop-color="#fac600" stop-opacity="0"/><stop offset=".6899" stop-color="#d68c3d" stop-opacity=".69"/><stop offset="1" stop-color="#c5715a"/></linearGradient><linearGradient id="SVGID_2_" gradientUnits="userSpaceOnUse" x1="255" x2="255" xlink:href="#lg2" y1="390" y2="73.491"/><linearGradient id="SVGID_3_" gradientUnits="userSpaceOnUse" x1="202.79" x2="264.965" xlink:href="#lg1" y1="13.89" y2="153.784"/><linearGradient id="SVGID_4_" gradientUnits="userSpaceOnUse" x1="255" x2="255" xlink:href="#lg1" y1="157.02" y2="40.726"/><linearGradient id="SVGID_5_" gradientUnits="userSpaceOnUse" x1="255" x2="255" xlink:href="#lg2" y1="73.333" y2="139.337"/><linearGradient id="lg3"><stop offset="0" stop-color="#c5715a"/><stop offset="1" stop-color="#883f2e"/></linearGradient><linearGradient id="SVGID_6_" gradientUnits="userSpaceOnUse" x1="217.374" x2="249.345" xlink:href="#lg3" y1="50.251" y2="124.505"/><linearGradient id="SVGID_7_" gradientUnits="userSpaceOnUse" x1="255" x2="255" xlink:href="#lg1" y1="136.73" y2="180.73"/><linearGradient id="SVGID_8_" gradientUnits="userSpaceOnUse" x1="255" x2="255" xlink:href="#lg2" y1="151.863" y2="195.908"/><linearGradient id="SVGID_9_" gradientUnits="userSpaceOnUse" x1="255" x2="255" xlink:href="#lg2" y1="468.667" y2="514.005"/><linearGradient id="SVGID_10_" gradientUnits="userSpaceOnUse" x1="314.337" x2="118.017" xlink:href="#lg2" y1="466.163" y2="269.843"/><linearGradient id="SVGID_11_" gradientUnits="userSpaceOnUse" x1="402.875" x2="245.458" xlink:href="#lg2" y1="487.125" y2="329.708"/><linearGradient id="SVGID_12_" gradientUnits="userSpaceOnUse" x1="397.241" x2="184.82" xlink:href="#lg2" y1="390.259" y2="177.839"/><linearGradient id="SVGID_13_" gradientUnits="userSpaceOnUse" x1="236.642" x2="252.299" xlink:href="#lg3" y1="464.422" y2="500.786"/><linearGradient id="SVGID_14_" gradientUnits="userSpaceOnUse" x1="255" x2="255" y1="492.667" y2="505.49"><stop offset="0" stop-color="#883f2e" stop-opacity="0"/><stop offset="1" stop-color="#6d3326"/></linearGradient><linearGradient id="lg4"><stop offset="0" stop-color="#a2e62e"/><stop offset=".1231" stop-color="#97de30"/><stop offset=".3395" stop-color="#79cb36"/><stop offset=".6234" stop-color="#4aab3f"/><stop offset=".9609" stop-color="#09804c"/><stop offset="1" stop-color="#017b4e"/></linearGradient><linearGradient id="SVGID_15_" gradientUnits="userSpaceOnUse" x1="264.675" x2="346.388" xlink:href="#lg4" y1="348.925" y2="430.638"/><linearGradient id="lg5"><stop offset="0" stop-color="#017b4e" stop-opacity="0"/><stop offset="1" stop-color="#026841"/></linearGradient><linearGradient id="SVGID_16_" gradientUnits="userSpaceOnUse" x1="342.756" x2="359.709" xlink:href="#lg5" y1="359.999" y2="376.953"/><linearGradient id="SVGID_17_" gradientUnits="userSpaceOnUse" x1="294.536" x2="294.536" xlink:href="#lg5" y1="390.915" y2="427.73"/><linearGradient id="lg6"><stop offset="0" stop-color="#017b4e" stop-opacity="0"/><stop offset=".4693" stop-color="#01764a" stop-opacity=".469"/><stop offset="1" stop-color="#026841"/></linearGradient><linearGradient id="SVGID_18_" gradientUnits="userSpaceOnUse" x1="274.323" x2="295.313" xlink:href="#lg6" y1="423.43" y2="423.43"/><linearGradient id="SVGID_19_" gradientUnits="userSpaceOnUse" x1="274.323" x2="295.313" xlink:href="#lg6" y1="364.92" y2="364.92"/><linearGradient id="SVGID_20_" gradientUnits="userSpaceOnUse" x1="152.477" x2="242.046" xlink:href="#lg4" y1="304.301" y2="393.87"/><linearGradient id="SVGID_21_" gradientUnits="userSpaceOnUse" x1="174.867" x2="174.867" xlink:href="#lg6" y1="385.869" y2="409.631"/><linearGradient id="SVGID_22_" gradientUnits="userSpaceOnUse" x1="198.605" x2="162.243" xlink:href="#lg6" y1="392.853" y2="392.853"/><linearGradient id="SVGID_23_" gradientTransform="matrix(-.551 .834 -.834 -.551 82.685 3658.278)" gradientUnits="userSpaceOnUse" x1="-2844.582" x2="-2823.593" xlink:href="#lg6" y1="1778.748" y2="1778.748"/><linearGradient id="SVGID_24_" gradientTransform="matrix(-.551 .834 -.834 -.551 82.685 3658.278)" gradientUnits="userSpaceOnUse" x1="-2844.582" x2="-2823.593" xlink:href="#lg6" y1="1720.238" y2="1720.238"/><linearGradient id="SVGID_25_" gradientUnits="userSpaceOnUse" x1="236.851" x2="358.397" xlink:href="#lg4" y1="229.862" y2="351.408"/><linearGradient id="SVGID_26_" gradientUnits="userSpaceOnUse" x1="214.213" x2="256.227" xlink:href="#lg6" y1="274.292" y2="232.278"/><linearGradient id="SVGID_27_" gradientUnits="userSpaceOnUse" x1="306.41" x2="299.88" y1="319.595" y2="334.732"><stop offset="0" stop-color="#017b4e" stop-opacity="0"/><stop offset=".4844" stop-color="#01754a" stop-opacity=".484"/><stop offset="1" stop-color="#026841"/></linearGradient><linearGradient id="SVGID_28_" gradientTransform="matrix(-.551 -.834 -.834 .551 82.685 8.599)" gradientUnits="userSpaceOnUse" x1="-367.908" x2="-346.919" xlink:href="#lg6" y1="3.818" y2="3.818"/><linearGradient id="SVGID_29_" gradientTransform="matrix(-.551 -.834 -.834 .551 82.685 8.599)" gradientUnits="userSpaceOnUse" x1="-367.908" x2="-346.919" xlink:href="#lg6" y1="-54.692" y2="-54.692"/><g><path d="m364.26 510h-218.52c-9.757 0-17.947-6.783-18.994-15.732l-40.949-349.873h338.405l-40.949 349.874c-1.047 8.948-9.236 15.731-18.993 15.731z" fill="url(#SVGID_1_)"/><path d="m384.399 484.482 39.804-340.087h-338.406l5.5 46.985z" fill="url(#SVGID_2_)"/><path d="m430.103 160.397h-350.206l21.58-102.951c6.992-33.353 38.644-57.446 75.469-57.446h156.107c36.826 0 68.478 24.093 75.469 57.446z" fill="url(#SVGID_3_)"/><path d="m383.495 160.397h-256.99l15.836-83.267c5.13-26.976 28.357-46.463 55.381-46.463h114.555c27.024 0 50.251 19.487 55.381 46.463z" fill="url(#SVGID_4_)"/><path d="m79.897 160.397h350.206l-21.185-101.064h-307.836z" fill="url(#SVGID_5_)"/><path d="m354.731 160.397h-199.462l12.291-70.43c3.982-22.818 22.01-39.3 42.984-39.3h88.912c20.974 0 39.002 16.483 42.984 39.3z" fill="url(#SVGID_6_)"/><g><path d="m424.155 191.363h-338.31c-13.722 0-24.845-11.124-24.845-24.845v-15.61c0-13.722 11.124-24.845 24.845-24.845h338.31c13.721 0 24.845 11.123 24.845 24.845v15.61c0 13.721-11.123 24.845-24.845 24.845z" fill="url(#SVGID_7_)"/><path d="m61 149.925v17.575c0 13.179 11.581 23.863 25.868 23.863h336.264c14.286 0 25.868-10.684 25.868-23.863v-17.575z" fill="url(#SVGID_8_)"/></g><path d="m115.596 399 11.15 95.268c1.047 8.949 9.237 15.732 18.994 15.732h218.52c9.757 0 17.947-6.783 18.994-15.732l11.15-95.268z" fill="url(#SVGID_9_)"/><path d="m383.253 494.268 5.761-49.224-163.812-163.811c-1.518-4.658-6.814-7.362-11.669-5.286l-56.676 24.197c-6.371 2.72-7.162 11.436-1.376 15.258l13.195 12.483-20.676 31.327c-7.182 10.881-7.418 24.95-.436 36.128 2.042 3.269 4.62 6.081 7.568 8.396l106.265 106.264h102.863c9.757 0 17.946-6.783 18.993-15.732z" fill="url(#SVGID_10_)"/><path d="m383.253 494.268 12.542-107.165c-21.649-21.606-39.407-39.312-39.407-39.312-1.083-1.624-3.257-2.1-4.919-1.076l-20.842 12.84c-1.748 1.077-2.254 3.388-1.116 5.097l8.014 12.032c.166.252.556.842.077 1.729-.478.888-1.185.888-1.486.888h-24.554l-21.581-20.773c-1.682-5.22-8.078-7.846-13.057-4.559l-51.432 33.948c-5.211 3.436-5.211 11.079 0 14.515l107.568 107.568h31.199c9.758 0 17.947-6.783 18.994-15.732z" fill="url(#SVGID_11_)"/><path d="m401.695 336.699-60.909-60.909c-1.681-5.22-8.08-7.849-13.065-4.555l-5.809 3.838c-.304-.257-39.749-39.6-39.749-39.6-6.568-8.294-16.675-13.034-27.432-12.632-10.905.408-20.875 6.287-26.885 15.394l-10.366 15.706c-1.123 1.702-.623 3.995 1.108 5.074l51.189 50.715c-4.289 4.185-3.152 11.692 2.682 14.183l117.065 116.777z" fill="url(#SVGID_12_)"/><path d="m186.667 510c3.112-22.818 17.2-39.3 33.592-39.3h69.484c16.391 0 30.48 16.483 33.592 39.3z" fill="url(#SVGID_13_)"/><path d="m186.667 510c3.112-22.818 17.2-39.3 33.592-39.3h69.484c16.391 0 30.48 16.483 33.592 39.3z" fill="url(#SVGID_14_)"/><g><g><path d="m362.999 358.211-7.61-11.42c-1.082-1.624-3.257-2.1-4.919-1.076l-20.842 12.84c-1.748 1.077-2.254 3.388-1.116 5.096l8.014 12.032c.166.252.556.842.077 1.73-.478.888-1.185.888-1.486.888h-45.703v-18.068c0-6.935-7.707-11.08-13.489-7.263l-51.432 33.948c-5.211 3.436-5.211 11.08 0 14.515l51.432 33.948c5.782 3.816 13.489-.329 13.489-7.263v-18.095h45.703c12.311 0 23.584-6.735 29.418-17.576 5.834-10.842 5.246-23.96-1.536-34.236z" fill="url(#SVGID_15_)"/><path d="m335.117 378.302h17.113c10.222 0 16.464-11.341 10.888-19.908-.04-.061-.079-.121-.119-.182l-7.61-11.42c-1.082-1.624-3.257-2.1-4.919-1.076l-20.842 12.84c-1.748 1.077-2.254 3.388-1.116 5.096l8.014 12.033c.166.252.555.841.077 1.729s-1.185.888-1.486.888z" fill="url(#SVGID_16_)"/><path d="m335.117 378.302h-45.703-51.868l-13.053 8.616c-5.211 3.436-5.211 11.08 0 14.515l51.432 33.948c5.782 3.816 13.489-.329 13.489-7.263v-18.095h45.703c12.311 0 23.584-6.735 29.418-17.576 2.394-4.449 3.705-9.282 3.952-14.144h-33.37z" fill="url(#SVGID_17_)"/><g><g><path d="m289.416 410.026v18.093c0 6.931-7.708 11.079-13.492 7.261l-24.983-16.493c.394-.977.647-1.718.647-2.042 0-1.271.518-2.977 1.347-4.36.83-1.389 1.983-2.459 3.248-2.459z" fill="url(#SVGID_18_)"/><path d="m289.416 360.231v18.093h-33.232c-2.536 0-4.595-4.278-4.595-6.819 0-.418-.271-1.165-.647-2.042l24.983-16.493c5.783-3.818 13.491.33 13.491 7.261z" fill="url(#SVGID_19_)"/></g></g></g><g><path d="m212.533 274.947-56.676 24.197c-6.371 2.72-7.162 11.436-1.376 15.258l14.925 9.861-22.406 33.948c-7.182 10.881-7.418 24.95-.436 36.128 6.163 9.867 17.144 15.683 28.777 15.683h29.275c2.003 0 3.626-1.623 3.626-3.626v-24.468c0-2.003-1.623-3.626-3.626-3.626h-29.733c-.302 0-1.008 0-1.487-.888-.478-.888-.088-1.478.078-1.73l22.397-33.935 15.248 10.074c5.786 3.823 13.493-.323 13.496-7.25l.028-61.625c.007-6.242-6.371-10.455-12.11-8.001z" fill="url(#SVGID_20_)"/><path d="m146.565 394.339c6.163 9.867 17.144 15.682 28.777 15.682h29.275c2.003 0 3.626-1.623 3.626-3.626v-24.468c0-2.003-1.623-3.626-3.626-3.626h-29.733c-.264 0-.838 0-1.298-.595h-32.094c.188 5.762 1.868 11.502 5.073 16.633z" fill="url(#SVGID_21_)"/><path d="m164.337 389.851c-5.565 8.627.522 20.106 10.788 20.17.072 0 .145.001.217.001h29.275c2.003 0 3.626-1.624 3.626-3.626v-24.468c0-2.003-1.623-3.626-3.626-3.626h-29.733c-.302 0-1.008 0-1.487-.888-.478-.888-.088-1.478.078-1.729z" fill="url(#SVGID_22_)"/><g><g><path d="m169.574 324.377-15.096-9.974c-5.783-3.821-4.995-12.539 1.38-15.259l27.532-11.753c.598.867 1.077 1.487 1.347 1.666 1.06.701 2.199 2.073 2.895 3.528.701 1.458.959 3.01.262 4.066z" fill="url(#SVGID_23_)"/><path d="m211.12 351.827-15.096-9.974 18.32-27.727c1.398-2.116 6.102-1.476 8.223-.075.349.23 1.121.416 2.06.586l-.012 29.936c-.002 6.93-7.712 11.075-13.495 7.254z" fill="url(#SVGID_24_)"/></g></g></g><g><path d="m340.217 277.485c-.003-6.928-7.71-11.073-13.496-7.25l-15.117 9.988-28.722-43.4c-6.433-9.748-17.412-15.421-29.152-14.982-10.905.408-20.875 6.287-26.885 15.394l-10.366 15.706c-1.123 1.702-.623 3.995 1.108 5.075l20.769 12.95c1.668 1.04 3.862.561 4.945-1.08l10.29-15.591c.137-.208.5-.758 1.409-.758s1.272.551 1.409.758l28.73 43.412-15.056 9.948c-5.786 3.823-4.995 12.538 1.376 15.258l56.676 24.197c5.739 2.454 12.117-1.76 12.111-8.002z" fill="url(#SVGID_25_)"/><path d="m226.845 237.235-10.366 15.706c-1.123 1.702-.623 3.995 1.108 5.075l20.769 12.95c1.668 1.04 3.862.561 4.945-1.08l10.29-15.591c.137-.208.5-.758 1.409-.758s1.272.551 1.409.758l-10.301-16.749c-4.337-7.052-14.575-7.341-19.169-.453-.031.048-.063.095-.094.142z" fill="url(#SVGID_26_)"/><path d="m285.131 297.695.008.012-15.056 9.948c-5.786 3.823-4.995 12.538 1.376 15.258l56.676 24.197c5.739 2.454 12.117-1.76 12.111-8.002l-.007-15.678-55.062-25.751z" fill="url(#SVGID_27_)"/><g><g><path d="m285.175 297.681-15.096 9.974c-5.783 3.821-4.995 12.539 1.38 15.259l27.532 11.753c.598-.867 1.077-1.487 1.347-1.666 1.06-.701 2.199-2.073 2.895-3.528.701-1.458.959-3.01.262-4.066z" fill="url(#SVGID_28_)"/><path d="m326.721 270.231-15.096 9.974 18.32 27.727c1.398 2.116 6.102 1.476 8.223.075.349-.23 1.121-.416 2.06-.586l-.012-29.936c-.002-6.93-7.712-11.075-13.495-7.254z" fill="url(#SVGID_29_)"/></g></g></g></g></g></svg>