<svg id="Capa_1" enable-background="new 0 0 512 512" height="512" viewBox="0 0 512 512" width="512" xmlns="http://www.w3.org/2000/svg" xmlns:xlink="http://www.w3.org/1999/xlink"><linearGradient id="SVGID_1_" gradientUnits="userSpaceOnUse" x1="74.981" x2="437.02" y1="437.019" y2="74.98"><stop offset="0" stop-color="#ff4031"/><stop offset="1" stop-color="#ff9ceb"/></linearGradient><radialGradient id="SVGID_2_" cx="256.001" cy="256" gradientUnits="userSpaceOnUse" r="256"><stop offset="0" stop-color="#ff4031"/><stop offset=".1093" stop-color="#ff453c" stop-opacity=".891"/><stop offset=".2991" stop-color="#ff5358" stop-opacity=".701"/><stop offset=".5467" stop-color="#ff6a86" stop-opacity=".453"/><stop offset=".8392" stop-color="#ff89c5" stop-opacity=".161"/><stop offset="1" stop-color="#ff9ceb" stop-opacity="0"/></radialGradient><linearGradient id="lg1"><stop offset="0" stop-color="#ffceec"/><stop offset=".9015" stop-color="#fffafd"/><stop offset="1" stop-color="#fff"/></linearGradient><linearGradient id="SVGID_3_" gradientUnits="userSpaceOnUse" x1="107.178" x2="365.816" xlink:href="#lg1" y1="438.965" y2="180.327"/><radialGradient id="SVGID_4_" cx="249.786" cy="94.221" gradientUnits="userSpaceOnUse" r="218.78"><stop offset="0" stop-color="#ff79a2"/><stop offset="1" stop-color="#ffb5d3" stop-opacity="0"/></radialGradient><linearGradient id="SVGID_5_" gradientUnits="userSpaceOnUse" x1="256" x2="256" y1="151.909" y2="428.66"><stop offset="0" stop-color="#ff79a2"/><stop offset=".0945" stop-color="#ff8cb1" stop-opacity=".906"/><stop offset=".2277" stop-color="#ff9ec0" stop-opacity=".772"/><stop offset=".3852" stop-color="#ffabcb" stop-opacity=".615"/><stop offset=".5884" stop-color="#ffb3d1" stop-opacity=".412"/><stop offset="1" stop-color="#ffb5d3" stop-opacity="0"/></linearGradient><linearGradient id="SVGID_6_" gradientUnits="userSpaceOnUse" x1="228.471" x2="283.529" xlink:href="#lg1" y1="109.434" y2="54.376"/><linearGradient id="SVGID_7_" gradientUnits="userSpaceOnUse" x1="256" x2="256" y1="89.511" y2="33.49"><stop offset="0" stop-color="#ff79a2"/><stop offset=".0408" stop-color="#ff7fa7" stop-opacity=".959"/><stop offset=".2484" stop-color="#ff97ba" stop-opacity=".752"/><stop offset=".4684" stop-color="#ffa8c8" stop-opacity=".532"/><stop offset=".7074" stop-color="#ffb2d0" stop-opacity=".293"/><stop offset="1" stop-color="#ffb5d3" stop-opacity="0"/></linearGradient><linearGradient id="SVGID_8_" gradientUnits="userSpaceOnUse" x1="118.76" x2="282.921" y1="421.492" y2="257.331"><stop offset="0" stop-color="#ff9caf"/><stop offset="1" stop-color="#ffc8e3" stop-opacity="0"/></linearGradient><linearGradient id="SVGID_9_" gradientUnits="userSpaceOnUse" x1="192.113" x2="364.687" y1="198.86" y2="26.286"><stop offset="0" stop-color="#ff9caf"/><stop offset=".0576" stop-color="#ffa0b4"/><stop offset=".4189" stop-color="#ffb6ce"/><stop offset=".7441" stop-color="#ffc3dd"/><stop offset="1" stop-color="#ffc8e3"/></linearGradient><linearGradient id="SVGID_10_" gradientUnits="userSpaceOnUse" x1="311.887" x2="452.782" y1="153.715" y2="12.821"><stop offset="0" stop-color="#ffc8e3"/><stop offset=".8086" stop-color="#fff4f9"/><stop offset="1" stop-color="#fff"/></linearGradient><linearGradient id="SVGID_11_" gradientUnits="userSpaceOnUse" x1="203.586" x2="377.953" xlink:href="#lg1" y1="207.497" y2="33.13"/><linearGradient id="SVGID_12_" gradientUnits="userSpaceOnUse" x1="242.851" x2="386.623" xlink:href="#lg1" y1="269.545" y2="125.774"/><g><circle cx="256" cy="256" fill="url(#SVGID_1_)" r="256"/><circle cx="256" cy="256" fill="url(#SVGID_2_)" r="256"/><path d="m118.132 169.372c3.489 81.804 8.826 163.883 15.489 246.196 1.325 16.099 14.865 29.285 30.77 29.822 61.073 2.014 122.145 2.014 183.218 0 15.905-.537 29.446-13.723 30.77-29.822 6.663-82.313 11.999-164.392 15.489-246.196-46.157-15.972-92.172-32.022-137.868-47.397-45.696 15.375-91.711 31.425-137.868 47.397z" fill="url(#SVGID_3_)"/><path d="m118.132 169.372c3.489 81.804 8.826 163.883 15.489 246.196 1.325 16.099 14.865 29.285 30.77 29.822 61.073 2.014 122.145 2.014 183.218 0 15.905-.537 29.446-13.723 30.77-29.822 6.663-82.313 11.999-164.392 15.489-246.196-46.157-15.972-92.172-32.022-137.868-47.397-45.696 15.375-91.711 31.425-137.868 47.397z" fill="url(#SVGID_4_)" opacity=".6"/><path d="m118.132 169.372c3.489 81.804 8.826 163.883 15.489 246.196 1.325 16.099 14.865 29.285 30.77 29.822 61.073 2.014 122.145 2.014 183.218 0 15.905-.537 29.446-13.723 30.77-29.822 6.663-82.313 11.999-164.392 15.489-246.196-46.157-15.972-92.172-32.022-137.868-47.397-45.696 15.375-91.711 31.425-137.868 47.397z" fill="url(#SVGID_5_)" opacity=".6"/><path d="m256 45.1c-24.797.005-45.189 21.003-45.457 46.406 30.305-.375 60.61-.375 90.915 0-.269-25.402-20.661-46.401-45.458-46.406z" fill="url(#SVGID_6_)"/><path d="m256 45.1c-24.797.005-45.189 21.003-45.457 46.406 30.305-.375 60.61-.375 90.915 0-.269-25.402-20.661-46.401-45.458-46.406z" fill="url(#SVGID_7_)" opacity=".6"/><path d="m129.177 208.666c-3.733-13.134-7.418-26.234-11.044-39.294 3.489 81.804 8.826 163.883 15.489 246.197 1.324 16.096 14.864 29.285 30.77 29.821 61.073 2.014 122.145 2.014 183.218 0-103.308-36.555-187.366-129.023-218.433-236.724z" fill="url(#SVGID_8_)"/><path d="m346.636 77.085c-60.424-1.646-120.848-1.646-181.272 0-33.283.987-61.266 29.289-62.017 62.455-.103 5.022-.2 10.044-.288 15.065 101.961-2.507 203.922-2.507 305.883 0-.089-5.021-.185-10.043-.288-15.065-.751-33.167-28.734-61.468-62.018-62.455z" fill="url(#SVGID_9_)"/><path d="m346.636 77.085c-10.071-.275-20.141-.503-30.212-.686-33.29-.631-60.355 26.997-60.424 60.951v15.375c50.98 0 101.961.626 152.942 1.88-.089-5.021-.185-10.043-.288-15.065-.751-33.167-28.734-61.468-62.018-62.455z" fill="url(#SVGID_10_)"/><path d="m408.653 139.54c-101.769-2.92-203.538-2.92-305.306 0-8.427.249-15.418 7.181-15.583 15.46-.166 8.278 6.588 14.838 15.05 14.67 102.124-2.094 204.248-2.094 306.372 0 8.463.169 15.214-6.393 15.05-14.67s-7.157-15.211-15.583-15.46z" fill="url(#SVGID_11_)"/><path d="m408.653 139.54c-35.619-1.022-71.238-1.687-106.857-1.993.092 16.96 13.867 30.779 30.797 30.946 25.531.262 51.062.654 76.593 1.177 8.463.169 15.214-6.393 15.05-14.67s-7.157-15.211-15.583-15.46z" fill="url(#SVGID_12_)"/></g></svg>